<svg width="60" height="60" viewBox="0 0 60 60" fill="none" xmlns="http://www.w3.org/2000/svg">
<path d="M12.5 2.5H5C4.33696 2.5 3.70107 2.76339 3.23223 3.23223C2.76339 3.70107 2.5 4.33696 2.5 5V55C2.5 55.663 2.76339 56.2989 3.23223 56.7678C3.70107 57.2366 4.33696 57.5 5 57.5H12.5V2.5Z" fill="#0066EE" fill-opacity="0.5"/>
<path d="M17.5 57.5H42.5V2.5H17.5V57.5ZM30 47.5C29.337 47.5 28.7011 47.2366 28.2322 46.7678C27.7634 46.2989 27.5 45.663 27.5 45C27.5 44.337 27.7634 43.7011 28.2322 43.2322C28.7011 42.7634 29.337 42.5 30 42.5C30.663 42.5 31.2989 42.7634 31.7678 43.2322C32.2366 43.7011 32.5 44.337 32.5 45C32.5 45.663 32.2366 46.2989 31.7678 46.7678C31.2989 47.2366 30.663 47.5 30 47.5ZM30 12.5C30.663 12.5 31.2989 12.7634 31.7678 13.2322C32.2366 13.7011 32.5 14.337 32.5 15C32.5 15.663 32.2366 16.2989 31.7678 16.7678C31.2989 17.2366 30.663 17.5 30 17.5C29.337 17.5 28.7011 17.2366 28.2322 16.7678C27.7634 16.2989 27.5 15.663 27.5 15C27.5 14.337 27.7634 13.7011 28.2322 13.2322C28.7011 12.7634 29.337 12.5 30 12.5ZM30 27.5C30.663 27.5 31.2989 27.7634 31.7678 28.2322C32.2366 28.7011 32.5 29.337 32.5 30C32.5 30.663 32.2366 31.2989 31.7678 31.7678C31.2989 32.2366 30.663 32.5 30 32.5C29.337 32.5 28.7011 32.2366 28.2322 31.7678C27.7634 31.2989 27.5 30.663 27.5 30C27.5 29.337 27.7634 28.7011 28.2322 28.2322C28.7011 27.7634 29.337 27.5 30 27.5Z" fill="#0066EE"/>
<path d="M55 2.5H47.5V57.5H55C55.663 57.5 56.2989 57.2366 56.7678 56.7678C57.2366 56.2989 57.5 55.663 57.5 55V5C57.5 4.33696 57.2366 3.70107 56.7678 3.23223C56.2989 2.76339 55.663 2.5 55 2.5Z" fill="#FDBD39"/>
</svg>
