<svg width="60" height="60" viewBox="0 0 60 60" fill="none" xmlns="http://www.w3.org/2000/svg">
<path d="M45 25H60L52.5 15L45 25ZM45 35H60L52.5 45L45 35Z" fill="#0066EE" fill-opacity="0.5"/>
<path d="M2.5 0H17.5V60H2.5C1.83696 60 1.20107 59.7366 0.732231 59.2678C0.26339 58.7989 0 58.163 0 57.5V2.5C0 1.83696 0.26339 1.20107 0.732231 0.732231C1.20107 0.26339 1.83696 0 2.5 0Z" fill="#0066EE"/>
<path d="M22.5 0H37.5C38.163 0 38.7989 0.26339 39.2678 0.732231C39.7366 1.20107 40 1.83696 40 2.5V57.5C40 58.163 39.7366 58.7989 39.2678 59.2678C38.7989 59.7366 38.163 60 37.5 60H22.5V0Z" fill="#FDBD39"/>
</svg>
