<svg width="60" height="60" viewBox="0 0 60 60" fill="none" xmlns="http://www.w3.org/2000/svg">
<path d="M52.5 60H30C29.337 60 28.7011 59.7366 28.2322 59.2678C27.7634 58.7989 27.5 58.163 27.5 57.5V52.5C27.5 51.837 27.7634 51.2011 28.2322 50.7322C28.7011 50.2634 29.337 50 30 50H52.5C53.163 50 53.7989 50.2634 54.2678 50.7322C54.7366 51.2011 55 51.837 55 52.5V57.5C55 58.163 54.7366 58.7989 54.2678 59.2678C53.7989 59.7366 53.163 60 52.5 60Z" fill="#0066EE" fill-opacity="0.5"/>
<path d="M52.5 0H7.5C6.83696 0 6.20107 0.26339 5.73223 0.732231C5.26339 1.20107 5 1.83696 5 2.5V7.5C5 8.16304 5.26339 8.79893 5.73223 9.26777C6.20107 9.73661 6.83696 10 7.5 10H52.5C53.163 10 53.7989 9.73661 54.2678 9.26777C54.7366 8.79893 55 8.16304 55 7.5V2.5C55 1.83696 54.7366 1.20107 54.2678 0.732231C53.7989 0.26339 53.163 0 52.5 0Z" fill="#FDBD39"/>
<path d="M52.5 15H7.5C6.83696 15 6.20107 15.2634 5.73223 15.7322C5.26339 16.2011 5 16.837 5 17.5V42.5C5 43.163 5.26339 43.7989 5.73223 44.2678C6.20107 44.7366 6.83696 45 7.5 45H52.5C53.163 45 53.7989 44.7366 54.2678 44.2678C54.7366 43.7989 55 43.163 55 42.5V17.5C55 16.837 54.7366 16.2011 54.2678 15.7322C53.7989 15.2634 53.163 15 52.5 15Z" fill="#0066EE"/>
</svg>
