<svg width="60" height="60" viewBox="0 0 60 60" fill="none" xmlns="http://www.w3.org/2000/svg">
<g clip-path="url(#clip0)">
<path d="M28.5144 0.329993L1.46443 12.9675C1.2815 13.0514 1.12654 13.1861 1.01798 13.3555C0.909424 13.525 0.851849 13.7221 0.852113 13.9233C0.852376 14.1245 0.910463 14.3215 1.01946 14.4906C1.12846 14.6598 1.28378 14.7941 1.46693 14.8775L28.7294 27.4225C29.5344 27.7925 30.4644 27.7925 31.2694 27.4225L58.5319 14.8775C58.7152 14.7943 58.8707 14.6602 58.9799 14.4912C59.0891 14.3222 59.1475 14.1253 59.148 13.9241C59.1485 13.7229 59.0912 13.5257 58.9829 13.3561C58.8745 13.1865 58.7197 13.0516 58.5369 12.9675L31.4844 0.329993C31.0195 0.112728 30.5126 0.00012207 29.9994 0.00012207C29.4863 0.00012207 28.9793 0.112728 28.5144 0.329993Z" fill="#0066EE"/>
<path opacity="0.64" d="M58.5375 29.1901L52.95 26.5801C52.5499 26.3931 52.1138 26.2956 51.6721 26.2943C51.2304 26.293 50.7938 26.388 50.3925 26.5726L31.27 35.3726C30.8717 35.5558 30.4384 35.6506 30 35.6506C29.5616 35.6506 29.1284 35.5558 28.73 35.3726L9.60501 26.5726C9.2041 26.3884 8.7679 26.2936 8.32669 26.2949C7.88547 26.2962 7.44983 26.3935 7.05001 26.5801L1.46251 29.1901C1.27969 29.2742 1.1249 29.4091 1.01657 29.5787C0.908232 29.7483 0.850917 29.9455 0.851444 30.1467C0.851971 30.348 0.910316 30.5448 1.01954 30.7138C1.12876 30.8829 1.28426 31.0169 1.46751 31.1001L28.73 43.6426C29.1281 43.8267 29.5614 43.9221 30 43.9221C30.4386 43.9221 30.8719 43.8267 31.27 43.6426L58.5325 31.1001C58.7158 31.0169 58.8713 30.8829 58.9805 30.7138C59.0897 30.5448 59.1481 30.348 59.1486 30.1467C59.1491 29.9455 59.0918 29.7483 58.9835 29.5787C58.8751 29.4091 58.7203 29.2742 58.5375 29.1901Z" fill="#0066EE" fill-opacity="0.5"/>
<path d="M58.5375 45.2702L52.95 42.6602C52.5499 42.4732 52.1138 42.3757 51.6721 42.3744C51.2304 42.3731 50.7938 42.468 50.3925 42.6527L31.27 51.4502C30.8717 51.6333 30.4385 51.7281 30 51.7281C29.5616 51.7281 29.1284 51.6333 28.73 51.4502L9.60503 42.6502C9.20413 42.4659 8.76792 42.3712 8.32671 42.3724C7.8855 42.3737 7.44986 42.4711 7.05004 42.6577L1.46253 45.2702C1.28042 45.3546 1.12633 45.4895 1.01851 45.6588C0.910689 45.8281 0.853664 46.0248 0.854191 46.2255C0.854717 46.4262 0.912774 46.6226 1.02148 46.7914C1.13018 46.9601 1.28498 47.0942 1.46754 47.1777L28.73 59.7227C29.535 60.0927 30.465 60.0927 31.27 59.7227L58.5325 47.1777C58.7151 47.0942 58.8699 46.9601 58.9786 46.7914C59.0873 46.6226 59.1454 46.4262 59.1459 46.2255C59.1464 46.0248 59.0894 45.8281 58.9816 45.6588C58.8737 45.4895 58.7197 45.3546 58.5375 45.2702Z" fill="#FDBD39"/>
</g>
<defs>
<clipPath id="clip0">
<rect width="60" height="60" fill="white"/>
</clipPath>
</defs>
</svg>
