<svg width="161" height="149" viewBox="0 0 161 149" fill="none" xmlns="http://www.w3.org/2000/svg">
<path fill-rule="evenodd" clip-rule="evenodd" d="M89.1206 0C130.885 0 139.677 58.3978 139.848 58.8783C140.024 59.3734 140.19 59.883 140.351 60.3775C140.676 61.382 141.095 62.349 141.421 63.3468C141.621 63.9556 141.987 64.4598 142.232 65.0346C142.709 66.133 143.292 67.1809 143.974 68.1628C144.256 68.5518 144.477 68.9816 144.631 69.4375C144.739 69.7863 145.096 69.8795 145.25 70.1874C145.499 70.6858 145.832 71.1414 146.12 71.6199C146.185 71.7882 146.336 71.9079 146.513 71.9329L146.457 72.4081C146.561 72.5792 146.597 72.3478 146.706 72.3886C146.842 72.574 147.037 72.7387 147.057 73.021C147.075 73.2864 147.382 73.3114 147.487 73.5428C147.717 74.0453 148.358 74.3015 148.348 74.9608C148.809 75.2524 149.035 75.7533 149.383 76.1462C149.562 76.3271 149.67 76.5654 149.691 76.8183L149.694 76.8769C149.692 77.1284 150.173 77.0719 150.043 77.4151C150.78 77.9731 150.971 78.8847 151.361 79.6399C151.985 80.8518 152.704 82.0226 153.128 83.3497C153.34 84.0135 153.752 84.6414 153.98 85.3136C154.495 86.8245 155.113 88.3025 155.447 89.876C155.585 90.526 155.867 91.1451 155.999 91.7969L156.151 92.5503C156.378 93.6807 156.593 94.8139 156.735 95.9595C156.809 96.218 156.809 96.4919 156.735 96.7504C156.612 97.0445 156.939 97.2328 156.965 97.5279C156.998 97.8779 156.859 98.2094 156.959 98.581C157.014 98.7857 156.959 99.1146 157.022 99.3522C157.227 100.125 156.967 100.921 157.19 101.688C157.226 101.985 157.195 102.286 157.1 102.569C156.946 103.513 157.228 104.478 156.946 105.4C156.814 105.855 156.789 106.334 156.872 106.799L156.907 106.979C156.932 107.112 156.949 107.241 156.884 107.331C156.627 107.685 156.693 108.102 156.642 108.49L156.632 108.554C156.558 108.988 156.635 109.442 156.505 109.884C156.327 110.317 156.228 110.778 156.211 111.246C156.276 112.039 156.012 112.75 155.85 113.487C155.769 113.855 155.836 114.292 155.434 114.566C155.23 114.705 155.712 114.975 155.42 115.179L155.386 115.2C155.171 115.322 155.181 115.519 155.241 115.755C155.296 115.971 154.923 116.12 155.03 116.341C155.137 116.561 155.185 116.882 155.06 116.923C154.748 117.026 155.065 117.368 154.803 117.433C154.778 117.448 154.76 117.473 154.755 117.502C154.666 118.33 154.137 119.01 154.006 119.838C153.907 120.333 153.716 120.804 153.444 121.227C153.218 121.635 153.026 122.062 152.87 122.502C152.577 123.242 152.075 123.86 151.792 124.597C151.716 124.797 151.204 124.73 151.464 125.139C151.165 125.245 151.256 125.558 151.136 125.753C151.004 125.9 150.85 126.026 150.679 126.126C150.569 126.564 150.357 126.97 150.062 127.311C149.546 128.073 148.983 128.8 148.376 129.49L147.875 130.056C147.204 130.812 146.513 131.551 145.629 132.071C145.402 132.205 145.506 132.459 145.319 132.597C144.236 133.403 143.239 134.318 142.006 134.93C141.491 135.186 141.049 135.641 140.522 135.907C139.523 136.413 138.595 137.043 137.527 137.437L137.337 137.504C136.656 137.732 135.986 138.078 135.296 138.33C133.877 138.892 132.396 139.28 130.885 139.486L129.952 139.59C129.124 139.683 128.294 139.768 127.457 139.791C127.061 139.802 126.681 139.675 126.318 139.721C125.965 139.766 125.606 139.737 125.265 139.635C124.995 139.559 124.767 139.793 124.477 139.667C124.254 139.527 123.977 139.506 123.737 139.608L123.689 139.631C123.552 139.711 123.281 139.562 123.071 139.515C122.765 139.471 122.464 139.396 122.173 139.291C121.948 139.186 121.661 139.523 121.504 139.164C121.22 139.387 101.87 134.748 84.0966 144.169C82.6492 145.136 80.9554 145.561 79.4088 146.313C78.6898 146.663 77.8816 146.823 77.1076 147.062L76.9423 147.114C75.5761 147.56 74.175 147.864 72.776 148.181C71.4906 148.462 70.1882 148.657 68.8774 148.766C67.9349 148.852 66.988 148.892 66.0478 148.996C65.6665 149.037 65.2927 148.766 64.9197 148.999C64.0814 148.769 63.2014 149.048 62.3655 148.788C61.8096 148.954 61.2872 148.748 60.7762 148.596C60.3862 148.48 60.0187 148.722 59.6246 148.55C59.2659 148.361 58.8641 148.271 58.4598 148.289C57.7886 148.393 57.2044 148.145 56.5931 148.013C55.1726 147.708 53.7572 147.378 52.3468 147.023C51.885 146.907 51.3662 146.952 50.9704 146.595C50.6233 146.283 50.0755 146.479 49.7344 146.109C49.6099 145.975 49.451 146.236 49.2635 146.134C48.8979 145.936 48.4278 146.066 48.0861 145.709C47.8329 145.444 47.3551 145.623 47.0749 145.304L47.0379 145.257C46.8726 145.025 46.436 145.572 46.3069 145.056C45.7854 145.015 45.3531 144.728 44.8886 144.532C44.5038 144.369 44.0497 144.461 43.7025 144.123C43.4066 143.835 42.8475 144.047 42.5912 143.615C41.9642 143.61 41.5017 143.136 40.9042 143.012C40.4506 142.892 40.015 142.711 39.6091 142.474C38.9656 142.14 38.3122 141.826 37.6539 141.527C37.4178 141.417 37.1878 141.293 36.9653 141.156C36.8404 141.083 36.8101 140.92 36.6318 140.88C35.503 140.628 34.5537 139.964 33.5896 139.383C33.0398 139.097 32.5137 138.766 32.0164 138.395L31.8517 138.27C31.7061 138.144 31.4038 138.081 31.2759 137.906C30.9191 137.417 30.3854 137.178 29.9016 136.884L29.8214 136.835C29.5488 136.673 29.301 136.471 29.0858 136.238C29.0451 136.193 29.0285 136.096 28.9852 136.086C28.182 135.885 27.7027 135.216 27.0885 134.748C26.5603 134.346 26.0982 133.856 25.5781 133.446L25.38 133.296C24.1627 132.418 10.8427 117.63 9.3334 115.078L8.90148 114.347C8.47016 113.616 8.04381 112.879 7.65126 112.127L7.31696 111.487C6.98319 110.846 6.65467 110.2 6.36422 109.543L5.97562 108.666C5.20032 106.911 4.44167 105.147 3.79506 103.335C3.21847 101.718 2.74113 100.075 2.25922 98.4301C1.95056 97.3741 1.68974 96.3134 1.46939 95.2375C1.11736 93.5181 0.803445 91.7918 0.527655 90.0584C0.270429 88.4263 0.365577 86.7704 0.0220718 85.1569C0.247122 84.1659 -0.166634 83.1604 0.0902761 82.1705C-0.100304 81.6819 0.0672768 81.1746 0.0851889 80.693C0.103561 80.1957 -0.00700853 79.6747 0.189832 79.1707C0.280005 78.9417 0.0715634 78.6665 0.184502 78.387C0.308483 78.1543 0.322792 77.878 0.223518 77.6336C0.558191 77.4784 0.159274 77.2394 0.298255 77.0183C0.4481 76.7783 0.514294 76.4949 0.486382 76.2128C0.388923 75.5813 0.749405 74.9984 0.68612 74.4279C0.620133 73.8445 0.905673 73.35 0.904774 72.8272L0.901092 72.7288C0.851812 72.0424 1.33812 71.5256 1.35434 70.8763C1.35588 70.8194 1.48898 70.767 1.56196 70.7105C1.53855 70.5644 1.37845 70.5975 1.26489 70.4839C1.44618 70.3252 1.60481 70.1419 1.73627 69.9394C1.83577 69.6617 1.90644 69.3743 1.94713 69.0819L1.48613 68.4819C1.65625 68.1387 1.59694 67.8264 1.82407 67.5573C1.92292 67.4396 1.8678 67.0802 1.88 66.8321C1.89609 66.5061 2.31123 66.312 2.21109 66.0546C2.13384 65.7585 2.15886 65.4447 2.28206 65.1649C2.87599 62.523 3.48096 59.8838 4.09699 57.247C4.16178 56.9644 4.10541 56.6089 4.45012 56.4434C4.07345 56.051 4.66499 55.914 4.67417 55.603C4.72218 55.3123 4.83322 55.0358 4.99939 54.7932C5.23466 54.3392 5.25631 53.7759 5.39032 53.2643C5.42561 52.9027 5.56137 52.5584 5.78204 52.271C6.0115 52.0312 5.97843 51.6137 6.15122 51.277C6.39532 50.8703 6.5845 50.4325 6.71376 49.9754C6.7527 49.647 6.88249 49.3361 7.08832 49.0783C7.27109 48.8747 7.12098 48.4532 7.47622 48.2996C7.57585 47.7087 7.9255 47.2342 8.18435 46.7166L8.23174 46.6189C8.86758 45.2868 9.58224 43.9943 10.3719 42.7484C11.0279 41.6998 11.6662 40.6401 12.3322 39.5981C12.5489 39.2619 12.7793 38.9267 13.0175 38.6074C13.8452 37.4329 14.7368 36.3055 15.6881 35.2303C16.5581 34.3 17.3875 33.328 18.301 32.4335C18.7867 31.9577 19.1841 31.3734 19.6556 30.8679C20.7666 29.6749 21.9076 28.5141 23.1077 27.4125C24.1212 26.4023 25.2295 25.4934 26.4171 24.6986C26.7399 24.5005 27.0054 24.21 27.3171 23.9908C27.6955 23.7805 28.0585 23.5434 28.4035 23.2813C28.8049 22.9005 29.2974 22.6582 29.7028 22.3054C30.0176 22.0316 30.521 22.1877 30.7463 21.6952C30.9104 21.3369 31.5249 21.4682 31.7319 21.0495C32.2991 21.0305 32.564 20.4763 33.0792 20.2941L33.1479 20.2726C33.6906 20.1232 34.1538 19.6811 34.6518 19.3677C35.132 19.0246 35.6346 18.7142 36.156 18.4387C37.135 17.9939 37.98 17.3162 38.9369 16.8568C39.8492 16.4194 40.6703 15.779 41.6654 15.5351C41.9005 15.4777 41.8566 15.2685 42.0184 15.1792C42.1868 15.0859 42.3712 15.1477 42.5232 15.04C43.1525 14.6258 47.3565 0 89.1206 0Z" fill="#D5F3FE"/>
<path fill-rule="evenodd" clip-rule="evenodd" d="M42.0103 31.3496C40.6132 32.1448 38.5677 31.1304 38.3384 29.5287C39.2294 29.4806 40.1819 29.4105 40.8862 28.8579C41.5906 28.3052 41.8372 27.0814 41.1311 26.531C35.3827 25.8187 29.7906 23.848 24.8526 20.7945C28.2244 19.7694 31.1257 17.6071 34.2927 16.0535C37.4597 14.4999 41.2903 13.5811 44.4489 15.152C47.5504 16.6946 51.1208 14.727 54.3573 13.4987C59.9851 11.3629 66.4384 11.5419 71.9414 13.9866C75.9562 15.7702 82.7594 12.8752 87.0965 12.2112C94.1811 11.1267 101.097 16.1366 108.211 15.2689C107.448 15.7781 106.685 16.2872 105.921 16.7963C106.673 16.727 107.429 16.699 108.183 16.7124C102.28 19.5629 96.3758 22.4133 90.472 25.2637C91.9676 25.8741 93.4632 26.4845 94.9588 27.0949C94.6072 28.2321 93.3468 29.0002 92.1856 28.7849C93.12 29.5352 94.0544 30.2855 94.9888 31.0357C93.9914 31.7505 92.729 32.0789 91.5134 31.9398C92.808 32.7831 93.8765 33.9763 94.5773 35.361C97.6612 34.3244 101.039 34.1968 104.192 34.9978C101.344 35.3745 98.4957 35.7512 95.6477 36.128C96.0777 37.3094 96.5078 38.4909 96.9378 39.6724C100.658 38.8133 104.612 39.0086 108.232 40.2303C104.643 40.3225 101.054 40.4146 97.4643 40.5068C97.3804 45.3114 95.0098 50.2111 90.8471 52.546C86.6844 54.8808 78.3662 56.9569 75.611 50.1586C73.5017 51.5554 73.651 54.9129 75.155 56.9569C76.6589 59.0008 79.0482 60.1321 81.2091 61.4461C88.3871 65.8108 93.801 73.0389 96.0031 81.1976C98.2053 89.3563 97.1715 98.3561 93.1782 105.79C98.562 106.635 103.565 109.726 106.757 114.181C113.632 110.954 117.439 103.59 122.705 98.0854C128.695 91.824 136.964 87.833 145.555 87.0569C150.637 86.5976 156.434 87.5864 159.399 91.7771C163.252 97.2242 159.699 105.693 153.548 108.197C148.672 110.182 143.172 109.184 137.927 109.559C127.381 110.313 118.121 116.588 109.424 122.655C109.07 124.62 109.782 126.747 111.244 128.092C114.355 124.848 118.279 122.403 122.548 121.051C124.125 120.552 126.49 120.682 126.666 122.341C126.732 122.969 126.405 123.565 126.073 124.1C123.228 128.704 119.215 132.565 114.523 135.216C112.047 136.616 109.28 137.7 106.446 137.54C103.612 137.38 100.726 135.73 99.7637 133.036C99.3177 131.787 99.2694 130.342 98.4247 129.325C96.9956 127.604 94.2505 128.119 92.2474 129.097C90.2443 130.074 88.109 131.403 85.9594 130.823C80.5858 129.373 74.9935 128.752 69.4359 128.986C62.3583 129.285 55.1468 130.948 48.2896 129.154C45.9988 128.555 43.4354 127.61 41.4061 128.839C37.4069 131.259 40.1043 139.008 36.0015 141.245C34.5482 142.037 32.7671 141.745 31.1639 141.344C24.0787 139.569 17.433 136.036 11.9768 131.143C11.4509 130.671 10.9092 130.142 10.7618 129.447C10.3196 127.366 13.3654 126.499 15.4409 126.885C18.9663 127.54 22.3381 129.022 25.2134 131.182C26.2213 131.939 27.7549 131.056 28.1819 129.864C28.6089 128.671 28.3151 127.358 28.1484 126.102C27.0958 118.164 32.0312 109.819 39.4544 106.985C34.9601 100.367 33.2511 91.8885 34.8267 84.0256C36.4024 76.1628 41.2418 69.0199 47.9311 64.684C50.6033 62.9518 53.6735 61.5351 55.3766 58.8301C57.0797 56.1251 56.3322 51.5869 53.2167 50.9633C50.2813 54.1709 45.5067 55.5276 41.3436 54.337C37.1804 53.1465 33.8216 49.4637 32.9909 45.1791C30.2277 46.1206 27.4645 47.0622 24.7013 48.0037C27.1539 46.0967 30.0584 44.7854 33.102 44.2112C33.3941 42.9342 33.6862 41.6572 33.9783 40.3801C28.7058 40.037 23.3591 40.9125 18.4648 42.9204C21.4765 40.633 25.3085 39.4707 29.071 39.7033C32.898 39.9398 36.7883 38.0505 38.9923 34.8851C37.6134 34.3959 36.374 33.5128 35.4559 32.3653C36.8622 31.595 38.5656 31.3954 40.1095 31.82M69.058 115.104C68.807 115.35 68.537 115.643 68.5547 115.996C68.5723 116.349 69.0972 116.612 69.2782 116.31C70.2663 114.658 71.9846 113.471 73.8679 113.138C75.7511 112.806 77.767 113.334 79.2523 114.548C79.7705 114.972 80.2331 115.479 80.8252 115.788C81.0383 115.9 81.403 115.903 81.4119 115.661C81.4148 115.581 81.3697 115.509 81.3254 115.443C80.2589 113.857 78.664 112.639 76.8612 112.035C75.281 111.505 73.4499 111.472 72.0365 112.36C71.5233 112.683 71.0856 113.112 70.6522 113.538C70.1208 114.06 69.5894 114.582 69.058 115.104ZM61.3946 112.218C59.3486 111.945 57.1459 112.637 55.7835 114.201C55.5433 114.477 55.325 114.787 55.2424 115.145C55.1598 115.502 55.2374 115.916 55.5119 116.157C56.5658 114.505 58.4387 113.415 60.3837 113.323C62.3287 113.23 64.295 114.137 65.4983 115.681C65.6865 115.923 65.866 116.187 66.1331 116.334C66.4002 116.482 66.7889 116.463 66.9515 116.203C67.1457 115.893 66.9109 115.496 66.6714 115.22C65.312 113.653 63.4406 112.49 61.3946 112.218ZM75.8264 110.104C75.7947 110.453 76.2517 110.67 76.5801 110.556C76.9086 110.442 77.1263 110.137 77.3462 109.865C79.1753 107.608 82.658 106.928 85.1895 108.334C85.5215 108.051 85.5405 107.508 85.3183 107.132C85.0961 106.755 84.6904 106.523 84.2764 106.39C83.3797 106.101 82.4061 106.199 81.4834 106.388C79.2997 106.833 77.0936 107.878 75.9456 109.805C75.8902 109.898 75.8362 109.996 75.8264 110.104ZM67.2408 117.427C66.3434 117.49 65.4649 117.729 64.6247 118.054C63.4635 118.502 62.3201 119.155 61.6404 120.206C62.6372 120.491 63.5928 119.741 64.5034 119.242C66.5461 118.124 69.1958 118.239 71.1352 119.532C71.7437 119.937 72.5255 120.461 73.1188 120.033C71.7307 118.277 69.4613 117.271 67.2408 117.427ZM70.9282 116.861C71.6089 116.503 72.1532 115.921 72.8284 115.553C73.7583 115.045 74.9168 114.987 75.8924 115.398C76.4222 115.621 76.8912 115.97 77.4132 116.212C77.9353 116.453 78.557 116.578 79.077 116.332C79.1348 116.305 79.1945 116.269 79.2189 116.21C79.2584 116.113 79.1881 116.009 79.12 115.931C77.9562 114.59 76.1328 113.864 74.3755 114.041C72.6182 114.218 70.9729 115.294 70.0947 116.84C70.278 117.083 70.6594 117.002 70.9282 116.861ZM57.2947 116.925C57.6594 116.715 57.9448 116.392 58.2783 116.135C58.9451 115.621 59.8138 115.385 60.6473 115.482C61.5761 115.591 62.4136 116.087 63.1818 116.625C63.4065 116.783 63.6357 116.948 63.9021 117.011C64.1685 117.073 64.4857 117.005 64.6365 116.775C64.7855 116.547 64.7257 116.23 64.5662 116.009C64.4066 115.789 64.1671 115.644 63.9337 115.506C62.9844 114.944 61.9809 114.382 60.8818 114.325C59.5078 114.253 58.2307 114.976 57.0424 115.676C56.5605 115.959 56.007 116.389 56.1091 116.943C56.4389 117.204 56.93 117.134 57.2947 116.925ZM63.4827 111.551C63.7307 111.875 64.2164 111.528 64.4903 111.226C65.3338 110.296 66.5497 109.72 67.7977 109.66C69.0456 109.599 70.3106 110.055 71.2386 110.899C71.4726 111.112 71.7195 111.363 72.0345 111.372C72.3495 111.381 72.6333 110.937 72.3834 110.743C71.0457 109.706 69.4892 108.859 67.8058 108.747C66.1225 108.635 64.3083 109.397 63.5289 110.906C63.4245 111.109 63.3445 111.37 63.4827 111.551ZM78.3663 111.267C78.5885 111.172 78.7513 110.979 78.9214 110.807C80.2166 109.492 82.4108 109.198 84.0011 110.126C84.3988 110.358 84.997 110.615 85.2281 110.214C85.4208 109.88 85.0773 109.491 84.7497 109.29C82.6107 107.982 79.5616 108.48 77.9417 110.403C77.7767 110.599 77.6183 110.868 77.7317 111.098C77.839 111.316 78.1442 111.362 78.3663 111.267ZM79.5488 111.39C79.4569 111.468 79.3652 111.554 79.3266 111.669C79.2185 111.988 79.6033 112.287 79.9369 112.261C80.2704 112.234 80.554 112.018 80.8567 111.874C81.5946 111.522 82.4814 111.606 83.2304 111.932C83.5267 112.062 83.8138 112.228 84.133 112.277C84.4522 112.325 84.8245 112.218 84.9699 111.928C83.7006 110.34 81.1002 110.082 79.5488 111.39ZM59.4792 110.781C59.6686 110.871 59.9271 110.854 60.049 110.682C60.2148 110.449 60.0372 110.131 59.8612 109.905C59.2655 109.141 58.6247 108.388 57.8058 107.876C56.987 107.363 55.9557 107.117 55.0437 107.431C54.951 107.771 55.3702 108.001 55.7001 108.117C56.9704 108.564 58.1233 109.346 59.013 110.364C59.1514 110.523 59.2898 110.691 59.4792 110.781ZM70.7046 111.634C69.2055 110.669 67.1593 110.652 65.6447 111.592C65.3815 111.755 65.111 111.985 65.0906 112.296C65.0701 112.607 65.4888 112.896 65.6964 112.665C66.5332 111.734 68.0619 111.541 69.1002 112.235C69.6099 112.576 70.342 112.529 70.8054 112.127C71.0242 112.104 70.8901 111.753 70.7046 111.634ZM81.6094 116.854C79.4793 116.709 77.4973 117.973 75.9512 119.458C76.0637 119.721 76.4476 119.651 76.7077 119.538C78.4685 118.769 80.2292 118 81.9899 117.231C82.1222 117.054 81.8284 116.869 81.6094 116.854ZM61.3373 117.811C61.5992 117.96 61.8558 118.164 62.1569 118.164C62.458 118.165 62.7565 117.799 62.5656 117.564C61.9641 116.824 61.0188 116.382 60.0705 116.396C59.1221 116.411 58.1907 116.882 57.6119 117.64C57.6833 117.916 58.0174 118.043 58.2967 118.002C58.576 117.961 58.822 117.802 59.0809 117.689C59.7973 117.375 60.6582 117.422 61.3373 117.811ZM71.8996 117.609C71.8757 117.82 72.1134 117.982 72.3241 117.97C72.5349 117.959 72.72 117.834 72.9049 117.732C73.6808 117.3 74.6363 117.212 75.477 117.494C76.0157 117.674 76.688 117.969 77.0768 117.552C77.1109 117.314 76.8738 117.134 76.663 117.02C75.9079 116.615 75.0766 116.309 74.2213 116.317C73.3659 116.325 72.4834 116.687 71.995 117.396C71.9506 117.46 71.9084 117.53 71.8996 117.609ZM70.3098 108.323C71.1903 108.641 72.0104 109.128 72.713 109.751C73.0026 110.008 73.2798 110.293 73.6312 110.453C73.9825 110.613 74.4386 110.617 74.7136 110.344C74.1051 109.873 73.6053 109.261 73.2644 108.568C73.0808 108.194 72.5913 108.126 72.1787 108.105C71.5756 108.076 70.9726 108.046 70.3696 108.016C70.306 108.103 70.2834 108.219 70.3098 108.323ZM62.4448 110.459C62.7562 110.166 62.9859 109.796 63.2735 109.479C63.7196 108.987 64.3071 108.628 64.9454 108.456C65.2208 108.382 65.5829 108.24 65.5413 107.955C64.7611 107.818 63.8709 107.708 63.2557 108.211C62.3939 108.915 61.7108 109.84 61.2881 110.875C61.7041 110.968 62.1335 110.752 62.4448 110.459ZM55.5099 110.103C56.069 110.47 56.6281 110.838 57.1873 111.205C57.4239 111.361 57.7261 111.52 57.9717 111.379C58.1995 111.249 58.2344 110.912 58.1156 110.676C57.9968 110.44 57.7704 110.282 57.5529 110.134C57.0977 109.825 56.6425 109.516 56.1873 109.207C55.8061 108.948 55.1851 108.741 54.9777 109.155C54.799 109.512 55.178 109.884 55.5099 110.103ZM67.2819 114.521C67.4959 114.735 67.7956 114.967 68.0674 114.836C68.1913 114.776 68.2711 114.653 68.3446 114.536C68.587 114.149 68.8294 113.762 69.0718 113.376C68.4371 112.664 67.1914 112.645 66.5357 113.337C66.4854 113.39 66.4363 113.451 66.4273 113.524C66.413 113.64 66.5016 113.74 66.5836 113.822C66.8164 114.055 67.0492 114.288 67.2819 114.521ZM57.498 120.048C57.9527 120.209 58.4893 120.257 58.8903 119.987C58.2867 119.287 57.5791 118.677 56.7985 118.186C56.5771 118.047 56.3274 117.912 56.069 117.949C55.8106 117.986 55.5819 118.283 55.707 118.514C56.0911 119.223 56.7421 119.781 57.498 120.048ZM82.444 114.417C82.6589 114.156 82.8738 113.894 83.0887 113.632C83.1627 113.541 83.2408 113.439 83.2362 113.322C83.2303 113.174 83.0955 113.067 82.9671 112.994C82.5206 112.741 81.9933 112.635 81.4847 112.697C81.2902 112.72 81.0875 112.774 80.9508 112.915C80.814 113.057 80.7746 113.308 80.9122 113.449C81.2241 113.768 81.5361 114.087 81.848 114.406C81.9499 114.51 82.0791 114.623 82.2209 114.592C82.3146 114.571 82.3828 114.492 82.444 114.417ZM60.0222 108.758C60.2149 108.967 60.457 109.182 60.7392 109.158C61.3444 109.108 61.5396 108.054 62.1441 108.112C62.3065 107.842 61.8635 107.626 61.5506 107.621C60.7408 107.608 59.931 107.595 59.1212 107.582C59.3855 108 59.6875 108.394 60.0222 108.758ZM65.0234 120.242C66.7079 120.234 68.3924 120.227 70.0769 120.22C69.9293 119.884 69.5341 119.747 69.1775 119.673C68.0086 119.428 66.7828 119.465 65.6306 119.781C65.3726 119.851 65.0782 119.978 65.0234 120.242ZM75.4244 118.453C74.8671 118.479 74.3098 118.504 73.7524 118.53C73.5725 118.538 73.3416 118.591 73.3194 118.771C73.3095 118.851 73.3496 118.929 73.3884 119C73.5358 119.27 73.6926 119.551 73.9474 119.721C74.2022 119.891 74.5857 119.908 74.784 119.673C74.936 119.493 74.9479 119.213 75.1291 119.063C75.2458 118.967 75.4078 118.947 75.537 118.869C75.6661 118.79 75.7483 118.585 75.6286 118.492C75.5724 118.449 75.4952 118.45 75.4244 118.453ZM60.9931 119.394C61.142 119.16 61.0012 118.828 60.7692 118.677C60.5371 118.526 60.2472 118.508 59.9715 118.494C59.6671 118.479 59.2662 118.536 59.2116 118.838C59.1856 118.982 59.2583 119.124 59.3286 119.252C59.5352 119.628 59.8391 120.06 60.2634 120.017C60.5922 119.984 60.8148 119.675 60.9931 119.394ZM83.01 116.022C83.2601 116.043 83.4843 115.872 83.6598 115.691C84.1951 115.138 84.5355 114.398 84.6074 113.629C84.4303 113.515 84.2136 113.692 84.0779 113.854C83.6221 114.397 83.1664 114.941 82.7106 115.485C82.5486 115.678 82.7598 116.001 83.01 116.022ZM55.1296 112.169C55.3837 112.49 55.874 112.591 56.2321 112.396C56.4155 112.296 56.5703 112.097 56.5339 111.89C56.5014 111.705 56.3351 111.58 56.1817 111.475C55.96 111.323 55.7384 111.17 55.5168 111.018C55.4491 110.971 55.3713 110.922 55.2911 110.939C55.2357 110.95 55.1913 110.991 55.1542 111.034C54.8864 111.344 54.8754 111.848 55.1296 112.169ZM74.8131 108.782C75.0793 109.008 75.4737 108.775 75.7379 108.547C76.0245 108.3 76.3111 108.053 76.5977 107.806C76.4354 107.65 76.1762 107.685 75.9566 107.731C75.3185 107.864 74.6803 107.997 74.0422 108.13C74.2992 108.347 74.5562 108.565 74.8131 108.782ZM84.8337 105.624C84.9943 105.826 85.3326 105.783 85.5168 105.602C85.7009 105.422 85.769 105.156 85.8218 104.902C85.8345 104.841 85.8463 104.776 85.821 104.719C85.7566 104.574 85.5444 104.618 85.4023 104.685C85.0198 104.865 84.5695 105.292 84.8337 105.624Z" fill="#FDBD39"/>
<path fill-rule="evenodd" clip-rule="evenodd" d="M34.8267 84.0259C36.4024 76.163 41.7897 69.5808 48.479 65.2449C45.0969 69.9228 34.7179 77.5939 38.0539 86.1403C43.3864 99.8015 64.1307 101.95 63.409 102.099C51.1396 104.623 33.6536 89.8802 34.8267 84.0259Z" fill="#E7EAEE"/>
<path fill-rule="evenodd" clip-rule="evenodd" d="M74.0724 15.7924C73.2189 15.8968 72.4668 16.5865 72.2825 17.4338C79.1918 13.6857 87.5372 12.7221 95.1071 14.7984C95.1136 18.6502 92.4356 22.355 88.7985 23.5257L80.9135 26.0637C82.9936 26.2965 85.1308 25.9887 87.0633 25.1782C87.7499 26.2697 88.881 27.067 90.133 27.3418L87.7092 27.8781C88.0665 28.9767 88.7962 29.9482 89.7478 30.5924C88.9403 30.3133 88.0417 30.3105 87.2324 30.5844L87.775 32.5727C84.2011 32.0725 80.3823 32.5635 77.3721 34.5707C74.362 36.5778 72.3406 40.2674 72.883 43.8664C73.5178 39.9534 76.1755 36.4329 79.7458 34.7758C83.316 33.1187 87.695 33.3732 91.053 35.433L88.7751 37.1354C89.6499 37.4865 90.6865 37.3968 91.4894 36.9005C93.2426 37.6832 92.7572 40.9198 90.8529 41.144L93.3718 41.3207C93.8085 45.6424 91.1625 50.0991 87.1799 51.7499C83.1974 53.4007 78.2104 52.1079 75.5097 48.7246C72.1574 50.4519 72.3924 55.6869 74.7816 58.6216C76.4494 60.6703 78.7462 62.0013 81.0469 63.3344C82.0419 63.911 83.0376 64.488 83.9835 65.1237C89.0081 68.5005 92.7537 73.7664 94.316 79.6502C91.5875 81.4936 89.1604 83.7901 87.1621 86.4191C90.1185 86.28 93.0138 85.0632 95.1939 83.0436L95.6594 87.587C93.2659 88.3307 91.1153 89.8487 89.6025 91.8623C91.7355 92.0816 93.9352 91.5788 95.7665 90.4536C95.1105 95.6814 93.9267 100.842 92.2394 105.829L86.738 105.783C88.0433 102.144 89.3653 98.2286 88.4037 94.482C87.4421 90.7354 83.1293 87.6427 79.7347 89.4448C83.6389 86.2699 86.5952 81.9236 88.1274 77.1062L78.2961 89.9103L70.7517 89.9747C70.5144 86.3883 70.2862 82.7124 71.2967 79.2656C72.3072 75.8188 74.8303 72.5921 78.3066 71.8062C78.6839 71.7209 79.0854 71.6515 79.4922 71.5812C81.1913 71.2875 82.9828 70.9778 83.4817 69.4286C77.8463 69.0978 72.1975 72.7377 70.1246 78.0353C68.6476 81.8102 68.9079 86.0179 69.1908 90.0663C63.9811 89.3082 58.6467 89.4301 53.4763 90.4253C52.5787 87.3383 51.6479 84.182 49.7651 81.5857C47.8823 78.9894 44.8257 77.0202 41.653 77.3407C46.7625 78.1069 49.2935 83.8355 51.2202 88.6712C53.1469 93.507 56.6444 99.0306 61.7882 98.5521C63.2532 98.4158 63.7195 100.844 62.5968 101.803C61.474 102.762 59.8058 102.579 58.3687 102.262C50.9658 100.627 44.0542 96.7922 38.7215 91.3597C37.6831 90.302 36.6791 89.1446 36.1993 87.7367C35.6074 85.9997 35.8832 84.0815 36.3922 82.3179C38.9925 73.3084 46.995 67.1354 54.6001 61.7339C58.6916 58.828 58.5449 51.6267 54.3384 48.8928C51.2246 51.7478 47.0728 53.744 42.8907 53.2783C38.7087 52.8125 34.7508 49.3578 34.6159 45.1148C35.9294 44.998 37.2168 44.5912 38.3616 43.9311C37.2379 43.5282 35.9715 43.5455 34.8589 43.9787C34.5564 42.8352 34.7773 41.5619 35.4469 40.5901L37.8312 40.3331C37.3519 39.7863 36.6833 39.4117 35.9699 39.2903C37.6907 36.3972 41.6846 35.6054 44.8852 36.583C48.0859 37.5606 50.678 39.8897 53.1579 42.1533C50.572 36.4329 43.5601 34.5891 37.438 33.4168L40.1095 31.82C38.5656 31.3954 36.8622 31.595 35.4559 32.3653C36.374 33.5128 37.6134 34.3959 38.9923 34.8851C36.7883 38.0505 32.8981 39.9398 29.071 39.7033C25.3085 39.4707 21.4765 40.633 18.4648 42.9204C23.3591 40.9125 28.7058 40.037 33.9783 40.3801L33.102 44.2112C30.0584 44.7854 27.1539 46.0967 24.7013 48.0037L32.9909 45.1791C33.8216 49.4637 37.1804 53.1465 41.3436 54.337C45.5067 55.5276 50.2813 54.1709 53.2167 50.9633C56.3322 51.5869 57.0797 56.1251 55.3766 58.8301C54.0281 60.972 51.8224 62.3061 49.6358 63.6287C49.061 63.9764 48.4874 64.3234 47.9311 64.684C41.2418 69.0199 36.4024 76.1628 34.8267 84.0256C33.2511 91.8885 34.9601 100.367 39.4544 106.985C32.0312 109.819 27.0958 118.164 28.1484 126.102C28.1725 126.283 28.1993 126.466 28.2261 126.65L28.2261 126.65L28.2261 126.65L28.2261 126.65L28.2262 126.65L28.2262 126.65C28.385 127.736 28.5471 128.844 28.1819 129.864C27.7549 131.056 26.2213 131.939 25.2134 131.182C22.3381 129.022 18.9663 127.539 15.4409 126.885C13.3654 126.499 10.3196 127.366 10.7618 129.447C10.9092 130.142 11.4509 130.671 11.9768 131.143C17.433 136.036 24.0787 139.569 31.1639 141.344C32.7671 141.745 34.5482 142.037 36.0015 141.245C38.0705 140.117 38.4101 137.587 38.7513 135.046C39.0867 132.548 39.4236 130.038 41.4061 128.839C43.1962 127.755 45.4021 128.363 47.4697 128.932L47.4699 128.932C47.746 129.008 48.0197 129.084 48.2896 129.154C53.2061 130.44 58.3047 129.949 63.4055 129.458C65.419 129.265 67.4328 129.071 69.4359 128.986C74.9935 128.751 80.5858 129.373 85.9594 130.823C87.8309 131.328 89.6917 130.386 91.4638 129.489L91.4652 129.488L91.4697 129.486C91.731 129.354 91.9903 129.222 92.2474 129.097C94.2505 128.119 96.9956 127.604 98.4247 129.325C98.9897 130.005 99.1984 130.877 99.4082 131.754L99.4082 131.754L99.4082 131.754L99.4082 131.754L99.4083 131.754L99.4083 131.754L99.4083 131.754L99.4083 131.754L99.4084 131.754L99.4084 131.755L99.4084 131.755L99.4084 131.755L99.4085 131.755L99.4085 131.755L99.4085 131.755L99.4085 131.755L99.4085 131.755L99.4086 131.755L99.4086 131.755L99.4086 131.756L99.4086 131.756L99.4087 131.756L99.4087 131.756L99.4087 131.756L99.4087 131.756L99.4088 131.756L99.4088 131.756L99.4088 131.756L99.4088 131.756L99.4088 131.756L99.4089 131.757L99.4089 131.757L99.4089 131.757L99.4089 131.757L99.409 131.757C99.5125 132.19 99.6163 132.623 99.7637 133.035C100.726 135.73 103.612 137.38 106.446 137.54C109.28 137.7 112.047 136.616 114.523 135.216C119.215 132.565 123.228 128.704 126.073 124.1C126.405 123.565 126.732 122.969 126.666 122.341C126.49 120.682 124.125 120.551 122.548 121.051C118.279 122.403 114.355 124.848 111.244 128.092C109.782 126.747 109.07 124.62 109.424 122.655C118.121 116.588 127.381 110.313 137.927 109.559C139.581 109.441 141.26 109.459 142.937 109.477C146.578 109.517 150.209 109.557 153.548 108.197C159.699 105.693 163.252 97.2242 159.399 91.7771C156.434 87.5864 150.637 86.5976 145.555 87.0568C136.964 87.833 128.695 91.824 122.705 98.0854C121.041 99.8251 119.522 101.751 118.006 103.672L118.006 103.673C114.726 107.831 111.459 111.974 106.757 114.181C103.565 109.726 98.562 106.635 93.1782 105.79C97.1715 98.356 98.2053 89.3563 96.0031 81.1976C93.801 73.0389 88.3871 65.8108 81.2091 61.4461C80.8184 61.2085 80.4202 60.9769 80.0211 60.7448L80.021 60.7447L80.0209 60.7447L80.0208 60.7446L80.0207 60.7446L80.0206 60.7445L80.0205 60.7444L80.0204 60.7444L80.0203 60.7443L80.0202 60.7443L80.0201 60.7442L80.02 60.7442L80.02 60.7441L80.0199 60.744L80.0198 60.744C78.2122 59.6926 76.3866 58.6308 75.155 56.9569C73.651 54.9129 73.5017 51.5554 75.611 50.1586C78.4161 54.0421 84.3025 54.8808 88.4652 52.546C92.6279 50.2111 94.9985 45.3114 95.0825 40.5068L105.85 40.2303C102.231 39.0086 98.2766 38.8133 94.556 39.6724L93.2658 36.128L101.81 34.9978C98.6576 34.1968 95.2793 34.3244 92.1954 35.361C91.4946 33.9762 90.4261 32.7831 89.1315 31.9398C90.3471 32.0789 91.6095 31.7505 92.6069 31.0357L89.8037 28.7849C90.9649 29.0002 92.2253 28.2321 92.5769 27.0949L88.0901 25.2637L105.801 16.7124C105.047 16.699 104.291 16.727 103.54 16.7963L105.829 15.2689C102.334 15.6953 98.8858 14.7025 95.4423 13.711C91.8779 12.6846 88.3181 11.6596 84.7146 12.2112C83.299 12.4279 81.8744 12.8823 80.4579 13.3342C77.5346 14.2666 74.6458 15.188 71.9414 13.9866C66.4384 11.5419 59.9851 11.3629 54.3573 13.4987C53.8596 13.6876 53.3541 13.8939 52.8435 14.1023C50.0339 15.2491 47.0735 16.4574 44.4489 15.152C41.2903 13.5811 37.4597 14.4999 34.2927 16.0535C33.181 16.5989 32.1019 17.2193 31.0238 17.8391C29.0308 18.9851 27.0408 20.1292 24.8526 20.7945C29.7906 23.848 35.3827 25.8187 41.1311 26.531C41.8372 27.0814 41.5906 28.3052 40.8862 28.8579C40.1819 29.4105 39.2294 29.4806 38.3384 29.5286C38.5677 31.1304 40.6132 32.1448 42.0103 31.3496C41.4232 31.4597 41.3794 30.4974 41.6233 29.9474L43.1453 26.5157C44.3273 26.9536 45.7984 26.251 46.212 25.051C43.2849 25.4064 40.2477 25.7522 37.4436 24.8334C34.6395 23.9146 32.1341 21.3514 32.2655 18.3797C38.51 14.7293 46.893 15.2236 52.6736 19.583C52.2272 18.2687 51.1301 17.198 49.8134 16.7916C51.3337 15.2815 53.3519 14.2904 55.4678 14.0149C54.2108 15.0183 53.6347 16.8123 54.0697 18.3688L59.7135 13.1314C58.7877 14.806 58.2691 16.7079 58.2156 18.6247C60.3088 17.2446 61.9764 15.2172 62.9349 12.8871L65.4456 13.2427C63.9085 14.553 63.0522 16.635 63.2182 18.6584C65.1312 17.4584 66.6144 15.5763 67.342 13.4254C69.6994 13.8097 71.9889 14.6149 74.0724 15.7924ZM143.424 108.507C142.161 108.465 140.898 108.423 139.643 108.459C130.296 108.726 121.606 113.32 113.895 118.655C113.786 118.73 113.678 118.805 113.57 118.88C112.107 119.895 110.629 120.921 108.958 121.52L106.996 115.749C106.89 115.439 106.825 115.014 107.111 114.858C110.112 113.221 112.852 111.098 115.195 108.596C116.756 106.929 118.141 105.097 119.524 103.267C121.482 100.676 123.438 98.0891 125.886 95.9808C129.797 92.614 134.719 90.687 139.658 89.2497C143.313 88.1861 147.143 87.3517 150.903 87.9359C154.663 88.5201 158.365 90.7842 159.744 94.3615C160.839 97.2027 160.303 100.554 158.616 103.083C156.929 105.612 154.189 107.333 151.254 108.055C148.701 108.683 146.064 108.595 143.424 108.507ZM35.8807 120.733C36.0783 121.207 36.203 121.84 35.8084 122.166C35.3003 122.586 34.5793 122.045 34.1523 121.541L30.5128 117.25C29.6415 119.535 29.2417 122.002 29.3464 124.449C29.3674 124.94 29.4071 125.438 29.4469 125.938C29.599 127.849 29.7532 129.785 28.876 131.442C28.4913 132.169 27.8366 132.836 27.0217 132.889C26.5598 132.919 26.11 132.749 25.6837 132.567C24.5152 132.069 23.3638 131.456 22.2128 130.843C19.2499 129.266 16.2893 127.691 13.0449 128.067C12.6019 128.118 12.0501 128.339 12.0674 128.788C12.0752 128.99 12.2054 129.162 12.3319 129.318C17.0096 135.082 24.3245 137.877 31.4054 139.988C32.5635 140.333 33.7841 140.669 34.9633 140.407C36.1426 140.145 37.2373 139.072 37.0949 137.862C36.7181 134.661 37.7122 131.32 39.7737 128.857C40.5967 127.874 41.6373 126.999 42.8861 126.737C44.42 126.416 45.9192 127.053 47.3955 127.681C47.7749 127.843 48.1527 128.003 48.5292 128.147C51.4152 129.248 54.6592 129.368 57.6174 128.483C56.4609 128.468 55.9054 127.069 55.6657 125.927C54.1127 118.531 53.2871 110.979 53.2048 103.419C53.1959 102.597 52.6244 101.87 51.935 101.432C51.3514 101.061 50.6861 100.855 50.0244 100.649C49.9044 100.612 49.7846 100.575 49.6654 100.537C47.2561 99.7668 44.9858 98.5562 42.9979 96.9815C42.7475 96.7831 42.5007 96.5785 42.2539 96.3738C41.4931 95.743 40.7317 95.1115 39.8582 94.6594C38.7015 94.0605 37.2699 93.8164 36.1106 94.4101C35.852 95.0318 36.3196 95.7543 36.918 96.0545C37.3712 96.2819 37.8789 96.3436 38.3855 96.4051C38.5478 96.4248 38.71 96.4445 38.8702 96.4696C39.6321 96.5891 40.3737 96.8395 41.0535 97.2067C41.7676 97.5925 42.4438 98.6112 41.8075 99.1169C41.5465 99.3243 41.1807 99.3097 40.8494 99.2852L37.1124 99.0081C38.0234 101.509 39.1849 103.917 40.5734 106.183C40.698 106.387 40.8644 106.613 41.1015 106.615C44.7627 106.648 48.8512 107.165 51.1714 110.023C51.6112 110.565 51.9719 111.348 51.5949 111.935C49.4681 109.344 46.1413 107.801 42.8074 107.859C39.4735 107.917 36.2015 109.575 34.1646 112.239C35.9625 113.453 37.3916 115.215 38.2155 117.233C38.4643 117.843 38.4185 118.84 37.7653 118.826L33.8424 113.98C33.6671 113.763 33.4564 113.528 33.1794 113.52C32.9573 113.513 32.7615 113.656 32.5853 113.793C32.2037 114.089 31.8077 114.402 31.6085 114.844C31.4093 115.286 31.4834 115.894 31.8984 116.14C33.6668 117.188 35.086 118.825 35.8807 120.733ZM80.6052 128.317C83.1245 126.196 83.9462 122.705 84.6227 119.466L87.1018 107.598C87.1283 107.471 87.1586 107.336 87.2491 107.244C87.3685 107.123 87.5556 107.109 87.7251 107.104C92.2439 106.966 97.0548 107.401 100.694 110.106C99.2093 110.849 97.9112 111.969 96.9529 113.334C96.684 113.717 96.4595 114.292 96.8056 114.606C96.9354 114.723 97.1162 114.765 97.2902 114.777C98.1578 114.84 98.9502 114.293 99.5843 113.692C99.7209 113.563 99.8552 113.429 99.9895 113.295C100.478 112.807 100.97 112.317 101.59 112.03C102.381 111.665 103.479 111.767 103.916 112.526C102.505 113.251 101.343 114.457 100.664 115.9C100.488 116.276 100.342 116.71 100.485 117.1C100.628 117.49 101.191 117.718 101.468 117.41L104.193 114.375C104.325 114.228 104.508 114.067 104.692 114.135C104.792 114.172 104.857 114.267 104.914 114.357C106.358 116.643 106.932 119.306 107.508 121.979C107.846 123.545 108.184 125.115 108.699 126.615C109.111 127.817 109.907 129.168 111.168 129.168C111.865 129.169 112.481 128.736 113.032 128.307C113.622 127.848 114.208 127.366 114.798 126.882C117.569 124.607 120.404 122.279 123.894 122.001C124.444 121.957 125.15 122.079 125.279 122.621C125.354 122.935 125.186 123.252 125.019 123.528C122.425 127.812 118.534 131.19 114.235 133.719C112.034 135.014 109.62 136.125 107.073 136.145C104.525 136.165 101.827 134.851 100.864 132.471C100.668 131.986 100.548 131.473 100.428 130.961C100.289 130.369 100.15 129.777 99.8942 129.229C99.2336 127.815 97.7695 126.82 96.2228 126.733C94.7501 126.651 93.3957 127.313 92.0443 127.973L92.0442 127.973L92.0441 127.974L92.0439 127.974L92.0438 127.974L92.0437 127.974L92.0435 127.974L92.0434 127.974L92.0433 127.974L92.0431 127.974L92.043 127.974L92.0428 127.974L92.0427 127.974L92.0426 127.974L92.0424 127.974L92.0423 127.974L92.0422 127.974L92.042 127.975L92.0419 127.975L92.0417 127.975L92.0416 127.975L92.0415 127.975L92.0413 127.975L92.0412 127.975L92.0411 127.975L92.0409 127.975L92.0408 127.975L92.0406 127.975L92.0405 127.975L92.0404 127.975L92.0402 127.975L92.0401 127.976L92.04 127.976C91.5667 128.207 91.0937 128.438 90.6162 128.637C87.4358 129.96 83.6962 129.841 80.6052 128.317ZM63.7885 102.765C62.8403 103.582 61.5647 103.908 60.3214 104C58.0815 104.166 55.7957 103.637 53.8513 102.502L54.6535 105.566C54.6881 105.698 54.7293 105.84 54.838 105.922C54.9324 105.992 55.0573 106.001 55.1747 106.007L66.7023 106.619C68.3828 106.708 70.0656 106.797 71.7478 106.748C76.4661 106.61 81.1493 105.367 85.3241 103.145C85.5649 103.017 85.8103 102.88 85.9838 102.669C86.1905 102.416 86.2722 102.085 86.3414 101.765C86.9261 99.0592 87.0272 96.2475 86.6384 93.5058C86.5429 92.8324 86.4099 92.1418 86.0347 91.5765C85.6595 91.0113 84.9846 90.5982 84.3223 90.7254C77.5382 92.0287 70.613 91.6261 63.6884 91.2236H63.6883C61.0785 91.0719 58.4687 90.9201 55.8666 90.8597C55.4021 90.849 54.9134 90.8467 54.5053 91.071C54.0972 91.2952 53.8163 91.8277 54.0259 92.2461C55.2125 94.6146 57.6641 96.1261 60.2062 96.8079C60.3887 96.8569 60.5756 96.9049 60.7646 96.9534C62.409 97.3754 64.2199 97.8401 64.817 99.3844C65.2701 100.556 64.7368 101.949 63.7885 102.765ZM82.2837 122.84C81.8186 124.703 80.8411 126.635 79.0675 127.334C78.447 127.578 77.7751 127.651 77.1119 127.713C70.9627 128.291 64.7476 128.152 58.6298 127.3C58.2655 127.249 57.8815 127.187 57.5976 126.951C57.2518 126.664 57.1346 126.189 57.044 125.746C56.7662 124.39 56.551 123.021 56.3992 121.644C56.3724 121.4 56.4394 121.052 56.6818 121.071C60.5965 121.379 64.5225 121.54 68.449 121.555C71.1576 121.566 73.8877 121.504 76.5331 120.917C79.1785 120.33 81.7578 119.183 83.6918 117.269C83.1419 118.434 82.9053 119.707 82.6682 120.981L82.6682 120.982C82.5523 121.605 82.4364 122.228 82.2837 122.84ZM69.058 115.104C68.807 115.35 68.537 115.643 68.5547 115.996C68.5723 116.349 69.0972 116.612 69.2782 116.31C70.2663 114.658 71.9846 113.471 73.8679 113.138C75.7511 112.806 77.767 113.334 79.2523 114.548C79.4066 114.674 79.556 114.808 79.7053 114.941L79.7053 114.941C80.0575 115.256 80.4094 115.571 80.8252 115.788C81.0383 115.9 81.403 115.903 81.4119 115.661C81.4148 115.581 81.3697 115.509 81.3254 115.443C80.2589 113.857 78.664 112.639 76.8612 112.035C75.281 111.505 73.4499 111.472 72.0365 112.36C71.5233 112.683 71.0856 113.112 70.6522 113.538L69.058 115.104ZM55.7835 114.201C57.1459 112.637 59.3486 111.945 61.3946 112.218C63.4406 112.49 65.312 113.653 66.6714 115.22C66.9109 115.496 67.1457 115.893 66.9515 116.203C66.7889 116.463 66.4002 116.482 66.1331 116.334C65.9001 116.206 65.7337 115.988 65.5701 115.775C65.5462 115.743 65.5223 115.712 65.4983 115.681C64.295 114.137 62.3287 113.23 60.3837 113.323C58.4387 113.415 56.5658 114.505 55.5119 116.157C55.2374 115.916 55.1598 115.502 55.2424 115.145C55.325 114.787 55.5433 114.477 55.7835 114.201ZM75.8264 110.104C75.7947 110.453 76.2517 110.67 76.5801 110.556C76.8757 110.453 77.0816 110.196 77.2802 109.948C77.3023 109.92 77.3242 109.892 77.3462 109.865C79.1753 107.608 82.658 106.928 85.1895 108.334C85.5215 108.051 85.5405 107.508 85.3183 107.132C85.0961 106.755 84.6904 106.523 84.2764 106.39C83.3797 106.101 82.4061 106.199 81.4834 106.388C79.2997 106.833 77.0936 107.878 75.9456 109.805C75.8902 109.898 75.8362 109.996 75.8264 110.104ZM64.6247 118.054C65.4649 117.729 66.3434 117.49 67.2408 117.427C69.4613 117.271 71.7307 118.277 73.1188 120.033C72.5274 120.459 71.7488 119.94 71.1411 119.535L71.1352 119.532C69.1958 118.239 66.5461 118.124 64.5034 119.242C64.3446 119.329 64.1844 119.424 64.0228 119.519L64.0226 119.519L64.0223 119.52L64.0221 119.52L64.0218 119.52L64.0216 119.52L64.0214 119.52L64.0211 119.52C63.257 119.972 62.4627 120.441 61.6404 120.206C62.3201 119.155 63.4635 118.502 64.6247 118.054ZM71.9013 116.194L71.9014 116.194L71.9015 116.194C72.2 115.964 72.4985 115.733 72.8284 115.553C73.7583 115.045 74.9168 114.987 75.8924 115.398C76.1771 115.518 76.4442 115.674 76.7114 115.831C76.9415 115.965 77.1717 116.1 77.4132 116.212C77.9353 116.453 78.557 116.578 79.077 116.332C79.1348 116.305 79.1945 116.269 79.2189 116.21C79.2584 116.113 79.1881 116.009 79.12 115.931C77.9562 114.59 76.1328 113.864 74.3755 114.041C72.6182 114.218 70.9729 115.294 70.0947 116.84C70.278 117.083 70.6594 117.002 70.9282 116.861C71.2763 116.677 71.5888 116.436 71.9013 116.194ZM57.9199 116.44L57.9199 116.44C57.7217 116.617 57.5239 116.793 57.2947 116.925C56.93 117.134 56.4389 117.204 56.1091 116.943C56.007 116.389 56.5605 115.959 57.0424 115.676C58.2307 114.976 59.5078 114.253 60.8818 114.325C61.9809 114.382 62.9844 114.944 63.9337 115.506C64.1671 115.644 64.4066 115.789 64.5662 116.009C64.7257 116.23 64.7855 116.547 64.6365 116.775C64.4857 117.005 64.1685 117.073 63.9021 117.011C63.6456 116.95 63.4236 116.795 63.2069 116.643L63.1818 116.625C62.4136 116.087 61.5761 115.591 60.6473 115.482C59.8138 115.385 58.9451 115.621 58.2783 116.135C58.1544 116.231 58.0373 116.335 57.9202 116.44L57.9199 116.44ZM63.4827 111.551C63.7307 111.875 64.2164 111.528 64.4903 111.226C65.3338 110.296 66.5497 109.72 67.7977 109.66C69.0456 109.599 70.3106 110.055 71.2386 110.899L71.2955 110.951C71.5129 111.151 71.7449 111.364 72.0345 111.372C72.3495 111.381 72.6333 110.937 72.3834 110.743C71.0457 109.706 69.4892 108.859 67.8058 108.747C66.1225 108.635 64.3083 109.397 63.5289 110.906C63.4245 111.109 63.3445 111.37 63.4827 111.551ZM78.8461 110.884L78.8461 110.884C78.7018 111.034 78.5556 111.186 78.3663 111.267C78.1442 111.362 77.839 111.316 77.7317 111.098C77.6183 110.868 77.7767 110.599 77.9417 110.403C79.5616 108.48 82.6107 107.982 84.7497 109.29C85.0773 109.491 85.4208 109.88 85.2281 110.214C84.997 110.615 84.3988 110.358 84.0011 110.126C82.4108 109.198 80.2166 109.492 78.9214 110.807L78.8853 110.844L78.8461 110.884ZM79.5488 111.39C79.4569 111.468 79.3652 111.554 79.3266 111.669C79.2185 111.988 79.6033 112.287 79.9369 112.261C80.1783 112.241 80.3935 112.123 80.6088 112.004L80.6091 112.004C80.6911 111.959 80.7732 111.913 80.8567 111.874C81.5946 111.522 82.4814 111.606 83.2304 111.932C83.3013 111.963 83.3717 111.996 83.4421 112.029L83.4423 112.03C83.6661 112.135 83.8903 112.24 84.133 112.277C84.4522 112.325 84.8245 112.218 84.9699 111.928C83.7006 110.34 81.1002 110.082 79.5488 111.39ZM60.049 110.682C59.9271 110.854 59.6686 110.871 59.4792 110.781C59.3032 110.698 59.1713 110.546 59.0424 110.398L59.013 110.364C58.1233 109.346 56.9704 108.564 55.7001 108.117C55.3702 108.001 54.951 107.771 55.0437 107.431C55.9557 107.117 56.987 107.363 57.8058 107.876C58.6247 108.388 59.2655 109.141 59.8612 109.905C60.0372 110.131 60.2148 110.449 60.049 110.682ZM70.7046 111.634C69.2055 110.669 67.1593 110.652 65.6447 111.592C65.3815 111.755 65.111 111.985 65.0906 112.296C65.0701 112.607 65.4888 112.896 65.6964 112.665C66.5332 111.734 68.0619 111.541 69.1002 112.235C69.6099 112.576 70.342 112.529 70.8054 112.127C71.0242 112.104 70.8901 111.753 70.7046 111.634ZM75.9512 119.458C77.4973 117.973 79.4793 116.709 81.6094 116.854C81.8284 116.869 82.1222 117.054 81.9899 117.231L76.7077 119.538C76.4476 119.651 76.0637 119.721 75.9512 119.458ZM61.3373 117.811C61.3892 117.84 61.441 117.872 61.4929 117.904L61.493 117.904C61.7028 118.033 61.9155 118.164 62.1569 118.164C62.458 118.165 62.7565 117.799 62.5656 117.564C61.9641 116.824 61.0188 116.382 60.0705 116.396C59.1221 116.411 58.1907 116.882 57.6119 117.64C57.6833 117.916 58.0174 118.043 58.2967 118.002C58.498 117.972 58.682 117.881 58.8661 117.791L58.8664 117.79C58.9376 117.755 59.0087 117.72 59.0809 117.689C59.7973 117.375 60.6582 117.422 61.3373 117.811ZM72.3241 117.97C72.1134 117.982 71.8757 117.82 71.8996 117.609C71.9084 117.53 71.9506 117.46 71.995 117.396C72.4834 116.687 73.3659 116.325 74.2213 116.317C75.0766 116.309 75.9079 116.615 76.663 117.02C76.8738 117.134 77.1109 117.314 77.0768 117.552C76.7268 117.928 76.1472 117.726 75.642 117.55C75.586 117.531 75.5308 117.512 75.477 117.494C74.6363 117.212 73.6808 117.3 72.9049 117.732C72.8782 117.746 72.8515 117.762 72.8247 117.777C72.666 117.868 72.5044 117.96 72.3241 117.97ZM70.3098 108.323C71.1903 108.641 72.0104 109.128 72.713 109.751C72.7619 109.795 72.8105 109.839 72.8592 109.883C73.0985 110.101 73.3392 110.32 73.6312 110.453C73.9825 110.613 74.4386 110.617 74.7136 110.344C74.1051 109.873 73.6053 109.261 73.2644 108.568C73.0808 108.194 72.5913 108.126 72.1786 108.105L70.3696 108.016C70.306 108.103 70.2834 108.219 70.3098 108.323ZM62.9375 109.889C62.7826 110.088 62.6278 110.287 62.4448 110.459C62.1335 110.752 61.7041 110.968 61.2881 110.875C61.7108 109.84 62.3939 108.915 63.2557 108.211C63.8709 107.708 64.7611 107.818 65.5413 107.955C65.5829 108.24 65.2208 108.382 64.9454 108.456C64.3071 108.628 63.7196 108.987 63.2735 109.479C63.155 109.61 63.0462 109.749 62.9375 109.889ZM55.5099 110.103L57.1873 111.205C57.4239 111.361 57.7261 111.52 57.9717 111.379C58.1995 111.249 58.2344 110.912 58.1156 110.676C57.9968 110.44 57.7704 110.282 57.5529 110.134L56.1873 109.207C55.8061 108.948 55.1851 108.741 54.9777 109.155C54.799 109.512 55.178 109.884 55.5099 110.103ZM68.0674 114.836C67.7956 114.967 67.4959 114.735 67.2819 114.521L66.5836 113.822C66.5016 113.74 66.413 113.64 66.4273 113.524C66.4363 113.451 66.4854 113.39 66.5357 113.337C67.1914 112.645 68.4371 112.664 69.0718 113.376L68.3446 114.536C68.2711 114.653 68.1913 114.776 68.0674 114.836ZM57.498 120.048C57.9527 120.209 58.4893 120.257 58.8903 119.987C58.2867 119.287 57.5791 118.677 56.7985 118.186C56.5771 118.047 56.3274 117.912 56.069 117.949C55.8106 117.986 55.5819 118.283 55.707 118.514C56.0911 119.223 56.7421 119.781 57.498 120.048ZM83.0887 113.632L82.444 114.417C82.3828 114.492 82.3146 114.571 82.2209 114.592C82.0791 114.623 81.9499 114.51 81.848 114.406L80.9122 113.449C80.7746 113.308 80.814 113.057 80.9508 112.915C81.0875 112.774 81.2902 112.72 81.4847 112.697C81.9933 112.635 82.5206 112.741 82.9671 112.994C83.0955 113.067 83.2303 113.174 83.2362 113.322C83.2408 113.439 83.1627 113.541 83.0887 113.632ZM60.0222 108.758C60.2149 108.967 60.457 109.182 60.7392 109.158C61.0317 109.134 61.2284 108.875 61.4218 108.621C61.6286 108.349 61.8317 108.082 62.1441 108.112C62.3065 107.842 61.8635 107.626 61.5506 107.621L59.1212 107.582C59.3855 108 59.6875 108.394 60.0222 108.758ZM70.0769 120.22L65.0234 120.242C65.0782 119.978 65.3727 119.851 65.6306 119.781C66.7828 119.465 68.0086 119.428 69.1775 119.673C69.5341 119.747 69.9293 119.884 70.0769 120.22ZM75.4244 118.453L73.7524 118.53C73.5725 118.538 73.3416 118.591 73.3194 118.771C73.3095 118.851 73.3496 118.929 73.3884 119C73.5358 119.27 73.6926 119.551 73.9474 119.721C74.2022 119.891 74.5857 119.908 74.784 119.673C74.8522 119.592 74.8922 119.491 74.932 119.391C74.9808 119.268 75.0292 119.146 75.1291 119.063C75.1953 119.008 75.276 118.979 75.357 118.949L75.3571 118.949C75.419 118.926 75.4811 118.903 75.537 118.869C75.6661 118.79 75.7483 118.585 75.6286 118.492C75.5724 118.449 75.4952 118.45 75.4244 118.453ZM60.7692 118.677C61.0012 118.828 61.142 119.16 60.9931 119.394C60.8148 119.675 60.5922 119.984 60.2634 120.017C59.8391 120.06 59.5352 119.628 59.3286 119.252C59.2583 119.124 59.1856 118.982 59.2116 118.838C59.2662 118.536 59.6671 118.479 59.9715 118.494C60.2472 118.508 60.5371 118.526 60.7692 118.677ZM83.01 116.022C83.2601 116.043 83.4843 115.872 83.6598 115.691C84.1951 115.138 84.5355 114.398 84.6074 113.629C84.4303 113.515 84.2136 113.692 84.0779 113.854L82.7106 115.485C82.5486 115.678 82.7598 116.001 83.01 116.022ZM56.2321 112.396C55.874 112.591 55.3837 112.49 55.1296 112.169C54.8754 111.848 54.8864 111.344 55.1542 111.034C55.1913 110.991 55.2357 110.95 55.2911 110.939C55.3713 110.922 55.4491 110.971 55.5168 111.018L56.1817 111.475C56.3351 111.58 56.5014 111.705 56.5339 111.89C56.5703 112.097 56.4155 112.296 56.2321 112.396ZM74.8131 108.782C75.0793 109.008 75.4737 108.775 75.7379 108.547L76.5977 107.806C76.4354 107.65 76.1762 107.685 75.9566 107.731L74.0422 108.13L74.8131 108.782ZM36.1121 91.7944C35.9166 91.619 35.8665 91.3323 35.8607 91.0685C35.854 90.7707 35.8886 90.472 35.9631 90.1838L37.2319 91.8504C37.3076 91.9499 37.3698 92.1209 37.2579 92.1756C37.0993 92.0682 36.9042 92.0377 36.7105 92.0075C36.4912 91.9732 36.2736 91.9393 36.1121 91.7944ZM84.8337 105.624C84.9943 105.826 85.3326 105.783 85.5168 105.602C85.7009 105.422 85.769 105.156 85.8218 104.902C85.8345 104.841 85.8463 104.776 85.821 104.719C85.7566 104.574 85.5444 104.618 85.4023 104.685C85.0198 104.865 84.5695 105.292 84.8337 105.624ZM70.4752 31.9371C70.6305 31.5458 70.9919 31.2815 71.3479 31.0609C72.4222 30.3952 73.6152 29.9251 74.8523 29.6799C75.1483 29.6213 75.501 29.5926 75.7065 29.8155C75.9377 30.0662 75.8221 30.4998 75.5655 30.7239C75.3369 30.9235 75.036 31.0055 74.7418 31.0856C74.7057 31.0954 74.6698 31.1052 74.6341 31.1152C73.6447 31.3916 72.7139 31.8797 71.9211 32.5378C71.6163 32.7908 71.2551 33.0888 70.8748 32.9822C70.4723 32.8693 70.3198 32.3284 70.4752 31.9371ZM48.2217 32.0288C47.9345 31.8719 47.7405 31.4804 47.9192 31.2046C48.0232 31.0441 48.217 30.971 48.4012 30.9238C49.8927 30.5419 51.437 31.2162 52.7861 31.9631C53.0898 32.1312 53.4024 32.3143 53.5939 32.6056C53.7853 32.8969 53.8133 33.3286 53.5635 33.5707C53.1454 33.9761 52.4826 33.5591 52.0105 33.2194C51.184 32.6244 50.1908 32.2678 49.1775 32.2022C49.1323 32.1993 49.0867 32.1969 49.0411 32.1944C48.7575 32.1793 48.469 32.1639 48.2217 32.0288ZM63.858 53.6053L62.8769 50.782C62.0037 51.4179 61.3509 52.3559 61.0546 53.4004C60.7865 53.1805 60.7766 52.8086 60.7669 52.4434C60.764 52.3342 60.7611 52.2256 60.7513 52.1219C60.6933 51.5064 60.3102 50.9318 59.7671 50.6456C59.2239 50.3594 58.5376 50.3706 58.0039 50.6744C58.1455 50.987 58.479 51.0862 58.8223 51.1883C59.0503 51.2561 59.2826 51.3252 59.4659 51.459C59.853 51.7414 59.9639 52.2737 59.9699 52.7556C59.9714 52.8765 59.9684 52.9983 59.9653 53.1201V53.1201C59.9561 53.4842 59.9469 53.8489 60.0596 54.1916C60.096 54.3023 60.1476 54.4127 60.2364 54.4873C60.4881 54.6985 60.8692 54.523 61.124 54.3157C61.6998 53.8473 62.1526 53.2264 62.4243 52.5324C62.664 52.774 62.7526 53.1133 62.8404 53.4499C62.8662 53.5488 62.892 53.6474 62.9215 53.7433C63.0514 54.1656 63.362 54.6169 63.7998 54.5965C64.0916 54.5828 64.3267 54.3612 64.5333 54.153L65.7203 52.9566C65.8633 52.8124 66.0185 52.6291 65.9725 52.4304C65.9282 52.2397 65.7043 52.1375 65.5121 52.1649C65.3198 52.1924 65.1555 52.3146 65.005 52.4384C64.5835 52.7853 64.1983 53.1772 63.858 53.6053ZM61.1467 42.2804C61.21 41.7629 61.2448 41.1601 60.868 40.8032C60.1649 40.1374 59.5492 39.3779 59.0418 38.5506C58.8205 38.1898 58.6128 37.7682 58.7183 37.3575C58.8775 36.7371 59.625 36.5128 60.2555 36.4353C61.2642 36.3114 62.2853 36.2904 63.2982 36.3726C63.7334 36.408 64.1948 36.474 64.5279 36.7588C64.861 37.0437 64.9812 37.6213 64.6597 37.9194C63.0837 39.3811 62.1609 41.5342 62.1849 43.6938C62.7692 44.0765 63.3631 44.4639 64.0288 44.6709C64.6946 44.8779 65.4533 44.8846 66.0538 44.5283C66.3067 44.3783 66.5188 44.173 66.7314 43.9673L66.7314 43.9672C66.8782 43.8252 67.0252 43.683 67.1859 43.5586C67.5794 43.2541 68.1428 43.0654 68.5644 43.3288L66.9601 44.8192C66.3208 45.4131 65.5268 46.0519 64.6806 45.852C64.4004 45.7857 64.1543 45.6328 63.9074 45.4793L63.9073 45.4793C63.7604 45.3879 63.6131 45.2964 63.4581 45.2228C62.6295 44.8294 61.6573 44.9764 60.7619 45.1703L60.598 45.2061L60.598 45.2061C59.753 45.3908 58.8786 45.582 58.0492 45.3524C57.166 45.108 56.3913 44.1818 56.6677 43.3009C57.2237 44.1219 58.1917 44.6422 59.1772 44.6498C59.5556 44.6528 59.9457 44.5797 60.2593 44.3658C60.901 43.9281 61.0518 43.056 61.1467 42.2804Z" fill="#00160A"/>
</svg>
