<svg width="60" height="60" viewBox="0 0 60 60" fill="none" xmlns="http://www.w3.org/2000/svg">
<path d="M57.5 15V5C57.5 4.33696 57.2366 3.70107 56.7678 3.23223C56.2989 2.76339 55.663 2.5 55 2.5H5C4.33696 2.5 3.70107 2.76339 3.23223 3.23223C2.76339 3.70107 2.5 4.33696 2.5 5V15H57.5Z" fill="#FDBD39"/>
<path d="M2.5 20V55C2.5 55.663 2.76339 56.2989 3.23223 56.7678C3.70107 57.2366 4.33696 57.5 5 57.5H17.5V20H2.5Z" fill="#0066EE" fill-opacity="0.5"/>
<path d="M22.5 57.5H55C55.663 57.5 56.2989 57.2366 56.7678 56.7678C57.2366 56.2989 57.5 55.663 57.5 55V20H22.5V57.5Z" fill="#0066EE"/>
</svg>
