<svg width="60" height="60" viewBox="0 0 60 60" fill="none" xmlns="http://www.w3.org/2000/svg">
<circle cx="30" cy="30" r="26.25" fill="#FF3366"/>
<path d="M21.2988 20.3613C23.111 20.3613 24.5801 18.8923 24.5801 17.0801C24.5801 15.2679 23.111 13.7988 21.2988 13.7988C19.4866 13.7988 18.0176 15.2679 18.0176 17.0801C18.0176 18.8923 19.4866 20.3613 21.2988 20.3613Z" fill="white"/>
<path d="M14.4434 23.1738L13.3008 27.3633H17.0508C16.2988 30.4199 14.7246 36.8496 14.4434 38.1152C14.0918 39.6973 14.0331 44.209 18.7793 44.209C22.092 44.209 24.2049 42.0689 25.3835 40.3215L24.4922 43.8867H29.8242L32.6074 32.6214C33.0029 30.7471 33.9339 27.1289 37.2949 27.1289C41.2923 27.1289 39.8258 31.8624 39.1071 34.1822C39.0778 34.2767 39.0498 34.3671 39.0234 34.4531C38.4844 36.2109 37.9102 38.2617 37.9102 39.668C37.9102 41.25 38.6426 44.209 42.7441 44.209C46.8457 44.209 48.5937 40.1465 48.9551 38.1152L46.875 37.2656C46.7285 38.3496 45.4102 40.6934 44.1797 40.6934C42.4952 40.6934 43.3414 37.8534 44.2444 34.8226C44.6449 33.4783 45.0566 32.0964 45.2637 30.9082C45.7871 27.9039 45.2637 22.793 40.0488 22.793C36.8099 22.793 34.2667 25.679 33.0568 27.6827L34.0723 23.1738H25.957L24.8438 27.3633H28.623C28.623 27.3633 26.3803 36.5031 26.2354 36.7896C24.7119 39.7998 22.4078 40.8103 20.6836 40.6934C19.3008 40.5996 19.4629 38.9355 19.7168 38.1152L23.4668 23.1738H14.4434Z" fill="white"/>
</svg>
