<svg width="60" height="60" viewBox="0 0 60 60" fill="none" xmlns="http://www.w3.org/2000/svg">
<path fill-rule="evenodd" clip-rule="evenodd" d="M30 56.25C44.4975 56.25 56.25 44.4975 56.25 30C56.25 15.5025 44.4975 3.75 30 3.75C15.5025 3.75 3.75 15.5025 3.75 30C3.75 44.4975 15.5025 56.25 30 56.25Z" fill="#1FB6FF"/>
<path fill-rule="evenodd" clip-rule="evenodd" d="M27.3838 24.2272C29.3059 24.2481 25.9219 34.226 26.2852 38.5637C26.6516 42.94 31.4939 41.6799 31.1866 39.1606C30.6637 34.8777 33.5167 21.4572 36.4101 21.4572C38.4402 21.4572 34.1616 30.709 35.0035 36.6335C35.5605 40.5533 40.6163 39.1935 40.1025 36.8694C38.403 29.1778 43.6687 21.7857 43.0786 16.5483C42.8205 14.2567 41.4423 13.1361 40.0638 13.1251C35.2373 13.088 31.5091 22.9859 31.5091 22.9859C31.5091 22.9859 31.8973 17.3603 28.1462 17.1537C22.4029 16.8372 16.7173 31.2109 16.8783 44.0451C16.9297 48.1395 22.0256 47.4421 21.7576 44.1777C21.2593 38.1068 24.644 24.1979 27.3838 24.2272V24.2272Z" fill="white"/>
</svg>
