<svg width="62" height="61" viewBox="0 0 62 61" fill="none" xmlns="http://www.w3.org/2000/svg">
<g filter="url(#filter0_d)">
<path fill-rule="evenodd" clip-rule="evenodd" d="M16.2045 8.98158L30.9999 7.5L45.7954 8.98158L57.2499 23.5463L30.9999 52.4998L4.75 23.5463L16.2045 8.98158Z" fill="#FDB300"/>
<path d="M15.3824 23.5463L30.9998 52.5001L4.75 23.5463H15.3824ZM46.6176 23.5463L31.0002 52.5001L57.25 23.5463" fill="#EA6C00"/>
<path fill-rule="evenodd" clip-rule="evenodd" d="M15.3824 23.5463H46.6172L30.9998 52.5001" fill="#FDAD00"/>
<path d="M30.9998 7.5L16.2044 8.98133L15.3824 23.5461L30.9998 7.5ZM31.0001 7.5L45.7955 8.98133L46.6175 23.5461" fill="#FDD231"/>
<path d="M57.25 23.5461L45.7956 8.98132L46.6176 23.5461H57.25ZM4.75 23.5461L16.2044 8.98132L15.3824 23.5461" fill="#FDAD00"/>
<path fill-rule="evenodd" clip-rule="evenodd" d="M30.9998 7.5L15.3824 23.5461H46.6172" fill="#FEEEB7"/>
</g>
<defs>
<filter id="filter0_d" x="-3" y="0" width="68" height="68" filterUnits="userSpaceOnUse" color-interpolation-filters="sRGB">
<feFlood flood-opacity="0" result="BackgroundImageFix"/>
<feColorMatrix in="SourceAlpha" type="matrix" values="0 0 0 0 0 0 0 0 0 0 0 0 0 0 0 0 0 0 127 0"/>
<feOffset dy="4"/>
<feGaussianBlur stdDeviation="2"/>
<feColorMatrix type="matrix" values="0 0 0 0 0 0 0 0 0 0 0 0 0 0 0 0 0 0 0.25 0"/>
<feBlend mode="normal" in2="BackgroundImageFix" result="effect1_dropShadow"/>
<feBlend mode="normal" in="SourceGraphic" in2="effect1_dropShadow" result="shape"/>
</filter>
</defs>
</svg>
