<svg width="60" height="60" viewBox="0 0 60 60" fill="none" xmlns="http://www.w3.org/2000/svg">
<path fill-rule="evenodd" clip-rule="evenodd" d="M11.842 37.8156L9.09558 38.8018L8.94812 46.8329L18.4554 43.419C15.1945 42.3423 12.8132 40.448 11.842 37.8156Z" fill="#FDBD39"/>
<path fill-rule="evenodd" clip-rule="evenodd" d="M13.2793 29.3212L3.75 32.743L9.09555 38.8017L11.842 37.8155C10.8737 35.1907 11.4708 32.2237 13.2793 29.3212Z" fill="#F69833"/>
<path fill-rule="evenodd" clip-rule="evenodd" d="M29.3154 17.7327C17.1808 22.09 9.35764 31.0815 11.842 37.8156L55.7856 22.0362C53.3012 15.302 41.4501 13.3753 29.3154 17.7327Z" fill="#FECF33"/>
<path fill-rule="evenodd" clip-rule="evenodd" d="M38.3122 42.119C50.4469 37.7616 58.2847 28.8101 55.7856 22.0361L11.842 37.8155C14.3411 44.5895 26.1775 46.4763 38.3122 42.119Z" fill="#EE6723"/>
<path fill-rule="evenodd" clip-rule="evenodd" d="M55.7856 22.0361L11.842 37.8155C12.7025 40.1479 15.9839 41.297 20.588 41.297C25.0766 41.297 30.8224 40.2056 36.8127 38.0545C48.9474 33.6972 57.485 26.6424 55.7856 22.0361Z" fill="#F69833"/>
<path fill-rule="evenodd" clip-rule="evenodd" d="M47.0397 18.5546C42.551 18.5546 36.8052 19.646 30.8149 21.797C18.6802 26.1543 10.1426 33.2092 11.842 37.8155L55.7856 22.0361C54.9251 19.7037 51.6438 18.5546 47.0397 18.5546Z" fill="#FDBD39"/>
<path fill-rule="evenodd" clip-rule="evenodd" d="M44.6128 47.2583H44.6125C43.3196 47.2583 41.4122 46.1103 38.9432 43.8464C36.0222 41.1679 32.6762 37.2449 29.5215 32.7999C26.3668 28.3552 23.7746 23.9115 22.2224 20.2873C20.5312 16.3379 20.2901 13.9095 21.5057 13.0696C21.7722 12.8856 22.0935 12.7924 22.4606 12.7924C23.4494 12.7924 25.3761 13.5161 28.9389 16.9637L29.0168 17.039L29.0063 17.1462C28.9819 17.3938 28.9594 17.6437 28.9394 17.889L28.8997 18.376L28.5502 18.0299C24.7114 14.2285 23.0216 13.8181 22.4732 13.8181C22.3168 13.8181 22.1923 13.8493 22.103 13.911C21.5757 14.2752 21.5417 16.0589 23.1814 19.8874C24.7059 23.447 27.2604 27.8235 30.3743 32.2107C33.4883 36.5984 36.7831 40.4634 39.6519 43.094C42.7454 45.9305 44.1394 46.2368 44.5952 46.2368C44.7526 46.2368 44.8805 46.2036 44.9753 46.138C45.5316 45.7539 45.5322 43.843 43.7037 39.7222L43.6198 39.5331L43.8035 39.4342C43.9873 39.3353 44.165 39.2379 44.3317 39.1448L44.5518 39.0218L44.6533 39.2504C45.9498 42.1703 47.1617 45.8814 45.5726 46.9795C45.3047 47.1645 44.9818 47.2583 44.6128 47.2583ZM44.6125 46.8079H44.6128L44.6126 47.033L44.6125 46.8079Z" fill="#EE6723"/>
<path fill-rule="evenodd" clip-rule="evenodd" d="M38.6067 41.9962L38.5882 42.2206C38.2814 45.9519 37.4737 50.4378 35.3675 50.6194C35.3252 50.6231 35.2812 50.625 35.2373 50.625C33.8065 50.625 32.4529 48.61 31.2142 44.6359C30.0421 40.8762 29.1326 35.8282 28.6531 30.4218C28.1737 25.0166 28.1809 19.8894 28.6734 15.985C29.2102 11.7304 30.2321 9.50854 31.7107 9.381C31.7544 9.37704 31.7997 9.375 31.8444 9.375C32.8824 9.375 34.4466 10.5302 36.048 15.911L35.0024 16.1094C34.4677 14.3113 33.885 12.8488 33.3066 11.8439C32.7715 10.9144 32.2512 10.4025 31.8415 10.4025C31.828 10.4025 31.8144 10.403 31.8011 10.4042C31.1602 10.4595 30.2269 11.9875 29.7065 16.1119C29.2228 19.9463 29.217 24.9965 29.6901 30.3324C30.1635 35.6691 31.0582 40.6417 32.2092 44.334C32.7247 45.9877 33.2901 47.3506 33.8443 48.2754C34.3554 49.1282 34.85 49.5979 35.237 49.5979C35.2503 49.5979 35.2635 49.5973 35.2768 49.5962C35.89 49.5434 37.0455 47.9533 37.5319 42.3587L38.6067 41.9962Z" fill="#EE6723"/>
</svg>
